<?xml version="1.0" encoding="utf-8"?>
<!-- Generator: Adobe Illustrator 24.2.1, SVG Export Plug-In . SVG Version: 6.00 Build 0)  -->
<svg version="1.1" id="Layer_1" xmlns="http://www.w3.org/2000/svg" xmlns:xlink="http://www.w3.org/1999/xlink" x="0px" y="0px"
	 viewBox="0 0 382 382" style="enable-background:new 0 0 382 382;" xml:space="preserve">
<style type="text/css">
	.st0{fill:#FFFFFF;stroke:#000000;stroke-miterlimit:10;}
	.st1{fill:#1776A0;}
	.st2{fill:#F90000;stroke:#000000;stroke-miterlimit:10;}
</style>
<rect x="20.4" y="65.9" class="st0" width="302.7" height="268.1"/>
<path class="st1" d="M328.1,30H47.9C30.9,30,17,43.2,17,59.5v267c0,16.3,13.9,29.5,30.9,29.5h280.1c17.1,0,30.9-13.2,30.9-29.5v-267
	C359,43.2,345.1,30,328.1,30z M122.8,311.5c0,4.7-4,8.6-9,8.6H75.5c-5,0-9-3.8-9-8.6V158.4c0-4.7,4-8.6,9-8.6h38.3c5,0,9,3.8,9,8.6
	V311.5z M94.7,135.3c-20.1,0-36.4-15.5-36.4-34.7s16.3-34.7,36.4-34.7s36.4,15.5,36.4,34.7S114.8,135.3,94.7,135.3z M323.1,312.2
	c0,4.4-3.7,7.9-8.3,7.9h-41.1c-4.6,0-8.3-3.5-8.3-7.9v-71.8c0-10.7,3.3-47-29.4-47c-25.3,0-30.5,24.8-31.5,35.9v82.8
	c0,4.4-3.7,7.9-8.3,7.9h-39.8c-4.6,0-8.3-3.5-8.3-7.9V157.7c0-4.4,3.7-7.9,8.3-7.9h39.8c4.6,0,8.3,3.5,8.3,7.9V171
	c9.4-13.4,23.4-23.8,53.1-23.8c65.9,0,65.5,58.6,65.5,90.9L323.1,312.2L323.1,312.2z"/>
<circle class="st2" cx="324.6" cy="54.9" r="45.9"/>
</svg>
